<svg xmlns="http://www.w3.org/2000/svg" width="17.034" height="17.099">
  <defs/>
  <path d="M16.739 10.424l-1.608-1.23c.021-.189.038-.41.038-.645 0-.234-.018-.456-.038-.645l1.61-1.23a.758.758 0 00.19-.982l-1.672-2.827a.797.797 0 00-.968-.34l-1.897.744a6.51 6.51 0 00-1.138-.646L10.967.656A.768.768 0 0010.195 0H6.842c-.393 0-.725.282-.772.649l-.29 1.974a6.748 6.748 0 00-1.136.647l-1.902-.746a.784.784 0 00-.96.334L.108 5.69a.753.753 0 00.19.986l1.607 1.228c-.026.24-.038.45-.038.645 0 .196.012.405.036.646l-1.609 1.23a.76.76 0 00-.19.982l1.673 2.828c.181.324.59.473.967.34l1.897-.745c.363.256.745.472 1.14.646l.288 1.966c.047.374.38.657.772.657h3.353c.393 0 .725-.283.772-.65l.29-1.973a6.748 6.748 0 001.136-.647l1.902.747a.786.786 0 00.96-.334l1.68-2.842a.759.759 0 00-.195-.976zm-.441.627l-1.736 2.862-2.087-.82a.373.373 0 00-.354.047c-.452.33-.888.579-1.336.758a.364.356 0 00-.223.279l-.368 2.21-3.402-.039-.318-2.17a.366.358 0 00-.223-.28 5.84 5.84 0 01-1.333-.756.363.355 0 00-.222-.074.365.365 0 00-.137.026l-2.146.791L.74 11.058c-.015-.028-.013-.06.005-.074l1.769-1.351a.365.357 0 00.137-.325 5.878 5.878 0 01-.056-.759c0-.218.018-.46.056-.759a.364.356 0 00-.137-.324L.737 6.049l1.736-2.863 2.087.82a.37.37 0 00.355-.046c.451-.332.888-.58 1.336-.758a.366.357 0 00.222-.28l.369-2.21 3.402.039.318 2.171a.366.358 0 00.223.28c.465.186.913.44 1.333.756a.369.369 0 00.358.047l2.146-.791 1.672 2.827c.016.028.013.06-.005.073L14.52 7.466a.364.356 0 00-.137.325c.028.216.057.476.057.758 0 .283-.029.542-.057.759a.365.357 0 00.137.325l1.767 1.35c.019.016.023.048.011.068z"/>
  <path d="M8.518 4.987c-2.01 0-3.645 1.598-3.645 3.562 0 1.964 1.635 3.563 3.645 3.563 2.009 0 3.644-1.599 3.644-3.563 0-1.964-1.635-3.562-3.644-3.562zm0 6.412c-1.608 0-2.916-1.278-2.916-2.85 0-1.571 1.308-2.85 2.916-2.85 1.607 0 2.915 1.279 2.915 2.85 0 1.572-1.308 2.85-2.915 2.85z"/>
</svg>
